<svg width="128" height="128" viewBox="0 0 128 128" fill="none" xmlns="http://www.w3.org/2000/svg">
<g clip-path="url(#clip0_101_2)">
<path d="M64 128C99.3462 128 128 99.3462 128 64C128 28.6538 99.3462 0 64 0C28.6538 0 0 28.6538 0 64C0 99.3462 28.6538 128 64 128Z" fill="url(#paint0_linear_101_2)"/>
<path d="M30.3333 97.6667L97.6667 30.3333" stroke="white" stroke-opacity="0.1" stroke-width="4" stroke-linecap="round"/>
<path d="M30.3333 30.3333L97.6667 97.6667" stroke="white" stroke-opacity="0.1" stroke-width="4" stroke-linecap="round"/>
<path d="M97.6667 64H30.3333" stroke="white" stroke-opacity="0.1" stroke-width="4" stroke-linecap="round"/>
<path d="M64 97.6667V30.3333" stroke="white" stroke-opacity="0.1" stroke-width="4" stroke-linecap="round"/>
<path d="M42.5 85.5L85.5 42.5" stroke="white" stroke-opacity="0.1" stroke-width="4" stroke-linecap="round"/>
<path d="M42.5 42.5L85.5 85.5" stroke="white" stroke-opacity="0.1" stroke-width="4" stroke-linecap="round"/>
<path d="M85.5 64H42.5" stroke="white" stroke-opacity="0.1" stroke-width="4" stroke-linecap="round"/>
<path d="M64 85.5V42.5" stroke="white" stroke-opacity="0.1" stroke-width="4" stroke-linecap="round"/>
<path d="M64 112C90.4964 112 112 90.4964 112 64C112 37.5036 90.4964 16 64 16C37.5036 16 16 37.5036 16 64C16 90.4964 37.5036 112 64 112Z" fill="url(#paint1_radial_101_2)"/>
<path d="M64 104C86.0914 104 104 86.0914 104 64C104 41.9086 86.0914 24 64 24C41.9086 24 24 41.9086 24 64C24 86.0914 41.9086 104 64 104Z" fill="url(#paint2_linear_101_2)"/>
<path d="M64 104C86.0914 104 104 86.0914 104 64C104 41.9086 86.0914 24 64 24C41.9086 24 24 41.9086 24 64C24 86.0914 41.9086 104 64 104Z" fill="url(#paint3_radial_101_2)" fill-opacity="0.5"/>
<path d="M52 52H76V76H52V52Z" fill="white"/>
<path d="M52 52L76 76" stroke="#4F46E5" stroke-width="4" stroke-linecap="round"/>
<path d="M52 76L76 52" stroke="#4F46E5" stroke-width="4" stroke-linecap="round"/>
</g>
<defs>
<linearGradient id="paint0_linear_101_2" x1="0" y1="0" x2="128" y2="128" gradientUnits="userSpaceOnUse">
<stop stop-color="#4F46E5"/>
<stop offset="1" stop-color="#818CF8"/>
</linearGradient>
<radialGradient id="paint1_radial_101_2" cx="0" cy="0" r="1" gradientUnits="userSpaceOnUse" gradientTransform="translate(64 64) rotate(90) scale(48)">
<stop stop-color="#6366F1"/>
<stop offset="1" stop-color="#4F46E5"/>
</radialGradient>
<linearGradient id="paint2_linear_101_2" x1="24" y1="24" x2="104" y2="104" gradientUnits="userSpaceOnUse">
<stop stop-color="white" stop-opacity="0.2"/>
<stop offset="1" stop-color="white" stop-opacity="0"/>
</linearGradient>
<radialGradient id="paint3_radial_101_2" cx="0" cy="0" r="1" gradientUnits="userSpaceOnUse" gradientTransform="translate(64 64) rotate(90) scale(40)">
<stop stop-color="#C7D2FE"/>
<stop offset="1" stop-color="#A5B4FC" stop-opacity="0"/>
</radialGradient>
<clipPath id="clip0_101_2">
<rect width="128" height="128" fill="white"/>
</clipPath>
</defs>
</svg>
